Coordinates
version=1
nRows=16
nColumns=22
inDegrees=yes

Units are S.I. units (second, meters, Newtons, ...)
If the header above contains a line with 'inDegrees', this indicates whether rotational values are in degrees (yes) or radians (no).

endheader
time	pelvis_tilt	pelvis_list	pelvis_rotation	pelvis_tx	pelvis_ty	pelvis_tz	hip_flexion_r	hip_adduction_r	hip_rotation_r	knee_angle_r	ankle_angle_r	subtalar_angle_r	hip_flexion_l	hip_adduction_l	hip_rotation_l	knee_angle_l	ankle_angle_l	subtalar_angle_l	lumbar_extension	lumbar_bending	lumbar_rotation
      0.01000000	      0.13330058	      0.75006450	    -26.30591118	     -0.92796649	      0.90536707	     -0.34944285	     -7.12744946	     -0.87523430	     -1.79942576	      1.25030784	     15.07236555	      1.31553691	     -0.71279342	     -0.57998629	    -12.37637264	    -10.86849775	     15.16321519	      0.46527081	     -4.01018589	     -2.54447823	      4.67415031
      0.02000000	      0.12871046	      0.75093401	    -26.29686629	     -0.92800992	      0.90536946	     -0.34946418	     -7.12169425	     -0.87205130	     -1.79954071	      1.25028389	     15.07568161	      1.31290657	     -0.70674930	     -0.58245108	    -12.37919819	    -10.86207736	     15.16170002	      0.46530505	     -4.01612462	     -2.54076098	      4.67321336
      0.03000000	      0.12486490	      0.75168238	    -26.28938106	     -0.92805800	      0.90537651	     -0.34947713	     -7.11524971	     -0.86868819	     -1.79956372	      1.24742782	     15.07656295	      1.30983837	     -0.70091139	     -0.58527085	    -12.38013160	    -10.85672391	     15.15943043	      0.46552063	     -4.02250802	     -2.53789713	      4.67136863
      0.04000000	      0.08463589	      0.74877311	    -26.26568733	     -0.92812609	      0.90534865	     -0.34951647	     -7.04825525	     -0.84061678	     -1.83964708	      1.19559981	     15.08213889	      1.24160062	     -0.64818070	     -0.61138416	    -12.34652329	    -10.87007575	     15.13355584	      0.47177587	     -3.99469809	     -2.50979325	      4.65136814
      0.05000000	      0.08275540	      0.75149366	    -26.26221294	     -0.92818829	      0.90535638	     -0.34952562	     -7.04330255	     -0.84030613	     -1.83818324	      1.19709243	     15.08153819	      1.24065759	     -0.64204631	     -0.61139729	    -12.34798569	    -10.86507945	     15.13502465	      0.47180908	     -4.00524347	     -2.51199563	      4.65021236
      0.06000000	      0.08133034	      0.75448076	    -26.25852074	     -0.92824614	      0.90536664	     -0.34953338	     -7.03736944	     -0.84047345	     -1.83672512	      1.19776194	     15.08006909	      1.23954509	     -0.63660587	     -0.61112752	    -12.34865928	    -10.86118217	     15.13637880	      0.47160263	     -4.01576757	     -2.51332639	      4.64919585
      0.07000000	      0.07969150	      0.75736493	    -26.25662526	     -0.92830436	      0.90537498	     -0.34954202	     -7.03126492	     -0.84055150	     -1.83579938	      1.19815154	     15.07809143	      1.23829647	     -0.63035819	     -0.61052376	    -12.34849081	    -10.85793165	     15.13759305	      0.47116594	     -4.02691254	     -2.51469346	      4.64804216
      0.08000000	      0.07809822	      0.76026193	    -26.25597500	     -0.92835812	      0.90538135	     -0.34954772	     -7.02473891	     -0.84107287	     -1.83542268	      1.19873551	     15.07587961	      1.23695983	     -0.62462945	     -0.60994962	    -12.34762846	    -10.85618704	     15.13856250	      0.47053364	     -4.03739166	     -2.51578406	      4.64691062
      0.09000000	      0.07618378	      0.76327932	    -26.25654198	     -0.92840973	      0.90538565	     -0.34955359	     -7.01835662	     -0.84143277	     -1.83568184	      1.19953578	     15.07356747	      1.23550699	     -0.61805386	     -0.60882116	    -12.34638052	    -10.85516688	     15.13928917	      0.46971234	     -4.04777968	     -2.51676170	      4.64581376
      0.10000000	      0.04644026	      0.78478653	    -26.24340386	     -0.92847627	      0.90534144	     -0.34957912	     -6.96779866	     -0.84457040	     -1.85206832	      1.18488218	     15.05540774	      1.19498451	     -0.55651393	     -0.60686764	    -12.32866858	    -10.88567654	     15.14349633	      0.43845658	     -4.01981422	     -2.52601817	      4.62666123
      0.11000000	      0.04385165	      0.78682850	    -26.24562193	     -0.92851359	      0.90533930	     -0.34958472	     -6.96347625	     -0.84442795	     -1.85290500	      1.18882617	     15.05661545	      1.19464357	     -0.55218255	     -0.60606139	    -12.32891782	    -10.88303878	     15.14370242	      0.43813230	     -4.02886547	     -2.52337663	      4.62693029
      0.12000000	      0.04115178	      0.78860791	    -26.24880702	     -0.92855071	      0.90533488	     -0.34957864	     -6.95952007	     -0.84346154	     -1.85406087	      1.19289906	     15.05763837	      1.19428987	     -0.54821900	     -0.60626578	    -12.32911938	    -10.88080679	     15.14370216	      0.43781810	     -4.03648683	     -2.52312215	      4.62684436
      0.13000000	      0.03828821	      0.79048477	    -26.25244181	     -0.92858501	      0.90532808	     -0.34956673	     -6.95590127	     -0.84204004	     -1.85539853	      1.19713344	     15.05848157	      1.19394975	     -0.54456195	     -0.60658101	    -12.32949763	    -10.87867174	     15.14351637	      0.43758395	     -4.04313806	     -2.52362515	      4.62660385
      0.14000000	      0.03504983	      0.79229267	    -26.25713786	     -0.92862025	      0.90531930	     -0.34954735	     -6.95204627	     -0.84045897	     -1.85691507	      1.20209231	     15.05929090	      1.19356828	     -0.54092220	     -0.60763109	    -12.33003778	    -10.87639701	     15.14305730	      0.43742910	     -4.04943325	     -2.52504443	      4.62615313
      0.15000000	      0.03215763	      0.79389569	    -26.26173434	     -0.92864789	      0.90530946	     -0.34952147	     -6.94928665	     -0.83838261	     -1.85789401	      1.20621204	     15.05988995	      1.19321222	     -0.53834996	     -0.60874525	    -12.33061878	    -10.87479230	     15.14234825	      0.43741015	     -4.05350208	     -2.52691036	      4.62566466
      0.16000000	      0.02898664	      0.79528485	    -26.26772872	     -0.92867667	      0.90529849	     -0.34948633	     -6.94630910	     -0.83599935	     -1.85853307	      1.21084458	     15.06043535	      1.19281615	     -0.53589742	     -0.61101284	    -12.33126703	    -10.87313165	     15.14128381	      0.43753717	     -4.05730050	     -2.52979063	      4.62492734
